<svg version="1.1" viewBox="0.0 0.0 468.0 500.43307086614175" fill="none" stroke="none" stroke-linecap="square" stroke-miterlimit="10" xmlns:xlink="http://www.w3.org/1999/xlink" xmlns="http://www.w3.org/2000/svg"><clipPath id="p.0"><path d="m0 0l468.0 0l0 500.43307l-468.0 0l0 -500.43307z" clip-rule="nonzero"/></clipPath><g clip-path="url(#p.0)"><path fill="#000000" fill-opacity="0.0" d="m0 0l468.0 0l0 500.43307l-468.0 0z" fill-rule="evenodd"/><path fill="#cfe2f3" d="m128.84105 214.1807l17.370087 -34.740143l45.448807 0l17.370087 34.740143l-17.370087 34.740143l-45.448807 0z" fill-rule="evenodd"/><path stroke="#000000" stroke-width="1.0" stroke-linejoin="round" stroke-linecap="butt" d="m128.84105 214.1807l17.370087 -34.740143l45.448807 0l17.370087 34.740143l-17.370087 34.740143l-45.448807 0z" fill-rule="evenodd"/><path fill="#cfe2f3" d="m64.284645 249.71509l17.370079 -34.740143l45.448814 0l17.370079 34.740143l-17.370079 34.740143l-45.448814 0z" fill-rule="evenodd"/><path stroke="#000000" stroke-width="1.0" stroke-linejoin="round" stroke-linecap="butt" d="m64.284645 249.71509l17.370079 -34.740143l45.448814 0l17.370079 34.740143l-17.370079 34.740143l-45.448814 0z" fill-rule="evenodd"/><path fill="#cfe2f3" d="m-0.3598307 285.347l17.370079 -34.740128l45.448822 0l17.370079 34.740128l-17.370079 34.740143l-45.448822 0z" fill-rule="evenodd"/><path stroke="#000000" stroke-width="1.0" stroke-linejoin="round" stroke-linecap="butt" d="m-0.3598307 285.347l17.370079 -34.740128l45.448822 0l17.370079 34.740128l-17.370079 34.740143l-45.448822 0z" fill-rule="evenodd"/><path fill="#cfe2f3" d="m258.28595 143.46509l17.370087 -34.740143l45.448822 0l17.370087 34.740143l-17.370087 34.740143l-45.448822 0z" fill-rule="evenodd"/><path stroke="#000000" stroke-width="1.0" stroke-linejoin="round" stroke-linecap="butt" d="m258.28595 143.46509l17.370087 -34.740143l45.448822 0l17.370087 34.740143l-17.370087 34.740143l-45.448822 0z" fill-rule="evenodd"/><path fill="#cfe2f3" d="m193.64148 178.847l17.370087 -34.740143l45.448822 0l17.370056 34.740143l-17.370056 34.740143l-45.448822 0z" fill-rule="evenodd"/><path stroke="#000000" stroke-width="1.0" stroke-linejoin="round" stroke-linecap="butt" d="m193.64148 178.847l17.370087 -34.740143l45.448822 0l17.370056 34.740143l-17.370056 34.740143l-45.448822 0z" fill-rule="evenodd"/><path fill="#cfe2f3" d="m-0.14736745 357.09106l17.370079 -34.740143l45.448822 0l17.370079 34.740143l-17.370079 34.740143l-45.448822 0z" fill-rule="evenodd"/><path stroke="#000000" stroke-width="1.0" stroke-linejoin="round" stroke-linecap="butt" d="m-0.14736745 357.09106l17.370079 -34.740143l45.448822 0l17.370079 34.740143l-17.370079 34.740143l-45.448822 0z" fill-rule="evenodd"/><path fill="#cfe2f3" d="m129.03464 285.7151l17.370087 -34.740143l45.448822 0l17.370071 34.740143l-17.370071 34.740143l-45.448822 0z" fill-rule="evenodd"/><path stroke="#000000" stroke-width="1.0" stroke-linejoin="round" stroke-linecap="butt" d="m129.03464 285.7151l17.370087 -34.740143l45.448822 0l17.370071 34.740143l-17.370071 34.740143l-45.448822 0z" fill-rule="evenodd"/><path fill="#cfe2f3" d="m64.39017 321.347l17.370079 -34.740143l45.448822 0l17.370079 34.740143l-17.370079 34.740143l-45.448822 0z" fill-rule="evenodd"/><path stroke="#000000" stroke-width="1.0" stroke-linejoin="round" stroke-linecap="butt" d="m64.39017 321.347l17.370079 -34.740143l45.448822 0l17.370079 34.740143l-17.370079 34.740143l-45.448822 0z" fill-rule="evenodd"/><path fill="#cfe2f3" d="m387.84238 143.6807l17.370056 -34.740143l45.448822 0l17.370087 34.740143l-17.370087 34.740143l-45.448822 0z" fill-rule="evenodd"/><path stroke="#000000" stroke-width="1.0" stroke-linejoin="round" stroke-linecap="butt" d="m387.84238 143.6807l17.370056 -34.740143l45.448822 0l17.370087 34.740143l-17.370087 34.740143l-45.448822 0z" fill-rule="evenodd"/><path fill="#cfe2f3" d="m323.03595 179.21509l17.370087 -34.740143l45.448822 0l17.370087 34.740143l-17.370087 34.740143l-45.448822 0z" fill-rule="evenodd"/><path stroke="#000000" stroke-width="1.0" stroke-linejoin="round" stroke-linecap="butt" d="m323.03595 179.21509l17.370087 -34.740143l45.448822 0l17.370087 34.740143l-17.370087 34.740143l-45.448822 0z" fill-rule="evenodd"/><path fill="#cfe2f3" d="m258.39148 214.847l17.370087 -34.740143l45.448822 0l17.370056 34.740143l-17.370056 34.740143l-45.448822 0z" fill-rule="evenodd"/><path stroke="#000000" stroke-width="1.0" stroke-linejoin="round" stroke-linecap="butt" d="m258.39148 214.847l17.370087 -34.740143l45.448822 0l17.370056 34.740143l-17.370056 34.740143l-45.448822 0z" fill-rule="evenodd"/><path fill="#cfe2f3" d="m64.33974 178.18135l17.370079 -34.740143l45.448822 0l17.370079 34.740143l-17.370079 34.740143l-45.448822 0z" fill-rule="evenodd"/><path stroke="#000000" stroke-width="1.0" stroke-linejoin="round" stroke-linecap="butt" d="m64.33974 178.18135l17.370079 -34.740143l45.448822 0l17.370079 34.740143l-17.370079 34.740143l-45.448822 0z" fill-rule="evenodd"/><path fill="#cfe2f3" d="m-0.2166706 213.71574l17.370079 -34.740143l45.44882 0l17.370079 34.740143l-17.370079 34.740143l-45.44882 0z" fill-rule="evenodd"/><path stroke="#000000" stroke-width="1.0" stroke-linejoin="round" stroke-linecap="butt" d="m-0.2166706 213.71574l17.370079 -34.740143l45.44882 0l17.370079 34.740143l-17.370079 34.740143l-45.44882 0z" fill-rule="evenodd"/><path fill="#cfe2f3" d="m323.13885 107.84766l17.370087 -34.740143l45.448822 0l17.370056 34.740143l-17.370056 34.740143l-45.448822 0z" fill-rule="evenodd"/><path stroke="#000000" stroke-width="1.0" stroke-linejoin="round" stroke-linecap="butt" d="m323.13885 107.84766l17.370087 -34.740143l45.448822 0l17.370056 34.740143l-17.370056 34.740143l-45.448822 0z" fill-rule="evenodd"/><path fill="#cfe2f3" d="m258.59106 71.93135l17.370056 -34.74014l45.448822 0l17.370087 34.74014l-17.370087 34.740143l-45.448822 0z" fill-rule="evenodd"/><path stroke="#000000" stroke-width="1.0" stroke-linejoin="round" stroke-linecap="butt" d="m258.59106 71.93135l17.370056 -34.74014l45.448822 0l17.370087 34.74014l-17.370087 34.740143l-45.448822 0z" fill-rule="evenodd"/><path fill="#cfe2f3" d="m193.78464 107.465744l17.370087 -34.740143l45.448822 0l17.370087 34.740143l-17.370087 34.740143l-45.448822 0z" fill-rule="evenodd"/><path stroke="#000000" stroke-width="1.0" stroke-linejoin="round" stroke-linecap="butt" d="m193.78464 107.465744l17.370087 -34.740143l45.448822 0l17.370087 34.740143l-17.370087 34.740143l-45.448822 0z" fill-rule="evenodd"/><path fill="#cfe2f3" d="m129.14017 142.84766l17.370087 -34.740143l45.448807 0l17.370087 34.740143l-17.370087 34.740143l-45.448807 0z" fill-rule="evenodd"/><path stroke="#000000" stroke-width="1.0" stroke-linejoin="round" stroke-linecap="butt" d="m129.14017 142.84766l17.370087 -34.740143l45.448807 0l17.370087 34.740143l-17.370087 34.740143l-45.448807 0z" fill-rule="evenodd"/><path fill="#cfe2f3" d="m-0.16025984 142.18266l17.370079 -34.740135l45.44882 0l17.370079 34.740135l-17.370079 34.740143l-45.44882 0z" fill-rule="evenodd"/><path stroke="#000000" stroke-width="1.0" stroke-linejoin="round" stroke-linecap="butt" d="m-0.16025984 142.18266l17.370079 -34.740135l45.44882 0l17.370079 34.740135l-17.370079 34.740143l-45.44882 0z" fill-rule="evenodd"/><path fill="#cfe2f3" d="m194.09105 35.932667l17.370087 -34.740143l45.448807 0l17.370087 34.740143l-17.370087 34.74014l-45.448807 0z" fill-rule="evenodd"/><path stroke="#000000" stroke-width="1.0" stroke-linejoin="round" stroke-linecap="butt" d="m194.09105 35.932667l17.370087 -34.740143l45.448807 0l17.370087 34.740143l-17.370087 34.74014l-45.448807 0z" fill-rule="evenodd"/><path fill="#cfe2f3" d="m129.28464 71.46706l17.370087 -34.740143l45.448822 0l17.370071 34.740143l-17.370071 34.740143l-45.448822 0z" fill-rule="evenodd"/><path stroke="#000000" stroke-width="1.0" stroke-linejoin="round" stroke-linecap="butt" d="m129.28464 71.46706l17.370087 -34.740143l45.448822 0l17.370071 34.740143l-17.370071 34.740143l-45.448822 0z" fill-rule="evenodd"/><path fill="#cfe2f3" d="m64.64017 106.84897l17.370079 -34.740143l45.448822 0l17.370079 34.740143l-17.370079 34.740143l-45.448822 0z" fill-rule="evenodd"/><path stroke="#000000" stroke-width="1.0" stroke-linejoin="round" stroke-linecap="butt" d="m64.64017 106.84897l17.370079 -34.740143l45.448822 0l17.370079 34.740143l-17.370079 34.740143l-45.448822 0z" fill-rule="evenodd"/><path fill="#cfe2f3" d="m193.84105 321.6807l17.370087 -34.740143l45.448807 0l17.370087 34.740143l-17.370087 34.740143l-45.448807 0z" fill-rule="evenodd"/><path stroke="#000000" stroke-width="1.0" stroke-linejoin="round" stroke-linecap="butt" d="m193.84105 321.6807l17.370087 -34.740143l45.448807 0l17.370087 34.740143l-17.370087 34.740143l-45.448807 0z" fill-rule="evenodd"/><path fill="#cfe2f3" d="m129.28464 357.2151l17.370087 -34.740143l45.448822 0l17.370071 34.740143l-17.370071 34.740143l-45.448822 0z" fill-rule="evenodd"/><path stroke="#000000" stroke-width="1.0" stroke-linejoin="round" stroke-linecap="butt" d="m129.28464 357.2151l17.370087 -34.740143l45.448822 0l17.370071 34.740143l-17.370071 34.740143l-45.448822 0z" fill-rule="evenodd"/><path fill="#cfe2f3" d="m64.64017 392.847l17.370079 -34.740143l45.448822 0l17.370079 34.740143l-17.370079 34.740143l-45.448822 0z" fill-rule="evenodd"/><path stroke="#000000" stroke-width="1.0" stroke-linejoin="round" stroke-linecap="butt" d="m64.64017 392.847l17.370079 -34.740143l45.448822 0l17.370079 34.740143l-17.370079 34.740143l-45.448822 0z" fill-rule="evenodd"/><path fill="#cfe2f3" d="m323.28595 250.96509l17.370087 -34.740143l45.448822 0l17.370087 34.740143l-17.370087 34.740143l-45.448822 0z" fill-rule="evenodd"/><path stroke="#000000" stroke-width="1.0" stroke-linejoin="round" stroke-linecap="butt" d="m323.28595 250.96509l17.370087 -34.740143l45.448822 0l17.370087 34.740143l-17.370087 34.740143l-45.448822 0z" fill-rule="evenodd"/><path fill="#cfe2f3" d="m258.64148 286.347l17.370087 -34.740128l45.448822 0l17.370056 34.740128l-17.370056 34.740143l-45.448822 0z" fill-rule="evenodd"/><path stroke="#000000" stroke-width="1.0" stroke-linejoin="round" stroke-linecap="butt" d="m258.64148 286.347l17.370087 -34.740128l45.448822 0l17.370056 34.740128l-17.370056 34.740143l-45.448822 0z" fill-rule="evenodd"/><path fill="#cfe2f3" d="m388.13885 215.34766l17.370087 -34.740143l45.448822 0l17.370056 34.740143l-17.370056 34.740143l-45.448822 0z" fill-rule="evenodd"/><path stroke="#000000" stroke-width="1.0" stroke-linejoin="round" stroke-linecap="butt" d="m388.13885 215.34766l17.370087 -34.740143l45.448822 0l17.370056 34.740143l-17.370056 34.740143l-45.448822 0z" fill-rule="evenodd"/><path fill="#cfe2f3" d="m193.83974 393.18137l17.370087 -34.740143l45.448807 0l17.370087 34.740143l-17.370087 34.740143l-45.448807 0z" fill-rule="evenodd"/><path stroke="#000000" stroke-width="1.0" stroke-linejoin="round" stroke-linecap="butt" d="m193.83974 393.18137l17.370087 -34.740143l45.448807 0l17.370087 34.740143l-17.370087 34.740143l-45.448807 0z" fill-rule="evenodd"/><path fill="#cfe2f3" d="m129.28333 428.71576l17.370087 -34.740143l45.448822 0l17.370071 34.740143l-17.370071 34.740112l-45.448822 0z" fill-rule="evenodd"/><path stroke="#000000" stroke-width="1.0" stroke-linejoin="round" stroke-linecap="butt" d="m129.28333 428.71576l17.370087 -34.740143l45.448822 0l17.370071 34.740143l-17.370071 34.740112l-45.448822 0z" fill-rule="evenodd"/><path fill="#cfe2f3" d="m388.09106 286.93137l17.370056 -34.740158l45.448822 0l17.370087 34.740158l-17.370087 34.740143l-45.448822 0z" fill-rule="evenodd"/><path stroke="#000000" stroke-width="1.0" stroke-linejoin="round" stroke-linecap="butt" d="m388.09106 286.93137l17.370056 -34.740158l45.448822 0l17.370087 34.740158l-17.370087 34.740143l-45.448822 0z" fill-rule="evenodd"/><path fill="#cfe2f3" d="m323.28464 322.46576l17.370087 -34.740143l45.448822 0l17.370087 34.740143l-17.370087 34.740112l-45.448822 0z" fill-rule="evenodd"/><path stroke="#000000" stroke-width="1.0" stroke-linejoin="round" stroke-linecap="butt" d="m323.28464 322.46576l17.370087 -34.740143l45.448822 0l17.370087 34.740143l-17.370087 34.740112l-45.448822 0z" fill-rule="evenodd"/><path fill="#cfe2f3" d="m258.64017 357.84766l17.370087 -34.740143l45.448822 0l17.370056 34.740143l-17.370056 34.740143l-45.448822 0z" fill-rule="evenodd"/><path stroke="#000000" stroke-width="1.0" stroke-linejoin="round" stroke-linecap="butt" d="m258.64017 357.84766l17.370087 -34.740143l45.448822 0l17.370056 34.740143l-17.370056 34.740143l-45.448822 0z" fill-rule="evenodd"/><path fill="#cfe2f3" d="m193.83711 464.68005l17.370087 -34.740143l45.448807 0l17.370087 34.740143l-17.370087 34.740143l-45.448807 0z" fill-rule="evenodd"/><path stroke="#000000" stroke-width="1.0" stroke-linejoin="round" stroke-linecap="butt" d="m193.83711 464.68005l17.370087 -34.740143l45.448807 0l17.370087 34.740143l-17.370087 34.740143l-45.448807 0z" fill-rule="evenodd"/><path fill="#cfe2f3" d="m388.08844 358.43005l17.370056 -34.740143l45.448822 0l17.370087 34.740143l-17.370087 34.740143l-45.448822 0z" fill-rule="evenodd"/><path stroke="#000000" stroke-width="1.0" stroke-linejoin="round" stroke-linecap="butt" d="m388.08844 358.43005l17.370056 -34.740143l45.448822 0l17.370087 34.740143l-17.370087 34.740143l-45.448822 0z" fill-rule="evenodd"/><path fill="#cfe2f3" d="m323.282 393.96442l17.370087 -34.740112l45.448822 0l17.370087 34.740112l-17.370087 34.740143l-45.448822 0z" fill-rule="evenodd"/><path stroke="#000000" stroke-width="1.0" stroke-linejoin="round" stroke-linecap="butt" d="m323.282 393.96442l17.370087 -34.740112l45.448822 0l17.370087 34.740112l-17.370087 34.740143l-45.448822 0z" fill-rule="evenodd"/><path fill="#cfe2f3" d="m258.63754 429.34634l17.370087 -34.740143l45.448822 0l17.370056 34.740143l-17.370056 34.740143l-45.448822 0z" fill-rule="evenodd"/><path stroke="#000000" stroke-width="1.0" stroke-linejoin="round" stroke-linecap="butt" d="m258.63754 429.34634l17.370087 -34.740143l45.448822 0l17.370056 34.740143l-17.370056 34.740143l-45.448822 0z" fill-rule="evenodd"/></g></svg>